<?xml version="1.0" encoding="UTF-8" standalone="no"?>
<svg
   xmlns:dc="http://purl.org/dc/elements/1.1/"
   xmlns:cc="http://creativecommons.org/ns#"
   xmlns:rdf="http://www.w3.org/1999/02/22-rdf-syntax-ns#"
   xmlns:svg="http://www.w3.org/2000/svg"
   xmlns="http://www.w3.org/2000/svg"
   xmlns:sodipodi="http://sodipodi.sourceforge.net/DTD/sodipodi-0.dtd"
   xmlns:inkscape="http://www.inkscape.org/namespaces/inkscape"
   width="97.564789mm"
   height="21.297308mm"
   viewBox="0 0 345.70201 75.462902"
   id="svg2"
   version="1.1"
   inkscape:version="0.91 r13725"
   sodipodi:docname="snpslogo.svg">
  <defs
     id="defs4" />
  <sodipodi:namedview
     id="base"
     pagecolor="#ededed"
     bordercolor="#666666"
     borderopacity="1.0"
     inkscape:pageopacity="0"
     inkscape:pageshadow="2"
     inkscape:zoom="1.979899"
     inkscape:cx="185.98224"
     inkscape:cy="17.257678"
     inkscape:document-units="px"
     inkscape:current-layer="g4146"
     showgrid="false"
     fit-margin-top="0"
     fit-margin-left="0"
     fit-margin-right="0"
     fit-margin-bottom="0"
     inkscape:window-width="1223"
     inkscape:window-height="871"
     inkscape:window-x="3980"
     inkscape:window-y="162"
     inkscape:window-maximized="0" />
  <metadata
     id="metadata7">
    <rdf:RDF>
      <cc:Work
         rdf:about="">
        <dc:format>image/svg+xml</dc:format>
        <dc:type
           rdf:resource="http://purl.org/dc/dcmitype/StillImage" />
        <dc:title></dc:title>
      </cc:Work>
    </rdf:RDF>
  </metadata>
  <g
     inkscape:label="Layer 1"
     inkscape:groupmode="layer"
     id="layer1"
     transform="translate(5.6214836,-141.35524)">
    <g
       id="g4146"
       transform="matrix(0.3,0,0,-0.3,-6.9867114,215.65799)">
      <path
         d="m 85.234363,217.90982 c 0,7.692 -3.8477,13.453 -20.871103,13.453 -17.0195,0 -20.8672,-5.761 -20.8672,-13.453 l 0,-20.855 c 0,-6.328 2.1992,-12.645 8.2305,-17.856 l 57.6562,-49.425 c 8.242,-6.856 13.18,-15.375 13.18,-24.157 l -0.004,-31.3004 c 0,-18.6836 -21.965,-29.0938 -58.2111,-29.0938 -40.0821,0 -59.3008,9.0391 -59.2969,29.0938 l 0,27.1714 36.2461,0 -0.008,-26.0737 c 0,-9.3438 7.1406,-14.8282 23.0586,-14.8282 14.832003,0 21.972603,5.4844 21.972603,14.8282 l 0.0039,27.7267 c 0,6.871 -2.75,12.09 -10.4336,18.949 l -53.257803,46.402 c -9.89059,8.508 -15.37887,15.11 -15.37887,25.262 l 0,23.883 c 0,19.492 20.32027,29.109 57.10937,29.109 40.6406,0 57.1095,-9.617 57.1095,-27.738 l -0.004,-25.262 -36.234397,0.008 0,24.156"
         style="fill:#543f7c;fill-opacity:1;fill-rule:nonzero;stroke:#543f7c;stroke-opacity:1"
         id="path4148"
         inkscape:connector-curvature="0" />
      <path
         d="m 470.98476,79.69922 c 0,-10.9844 4.382,-18.6797 27.457,-18.6797 23.062,0 27.461,7.6953 27.461,18.6797 l 0.003,133.4336 c 0,10.984 -4.402,18.672 -27.457,18.672 -23.07,0 -27.464,-7.688 -27.464,-18.672 l 0,-133.4336 z m -36.239,133.9926 c 0,19.488 14.825,33.492 63.703,33.484 48.868,0 63.704,-13.996 63.7,-33.484 l -0.016,-134.5434 c 0,-19.5 -14.816,-33.5 -63.691,-33.5 -48.875,0 -63.703,14 -63.703,33.5 l 0.007,134.5434"
         style="fill:#543f7c;fill-opacity:1;fill-rule:nonzero;stroke:#543f7c;stroke-opacity:1"
         id="path4150"
         inkscape:connector-curvature="0" />
      <path
         d="m 635.99176,151.90582 c 16.489,0 28,2.2 28,12.364 l 0,53.527 c 0,10.16 -11.511,12.359 -28,12.359 l -17.57,0 0,-78.25 17.57,0 z m -53.812,93.625 57.672,0 c 46.679,0 60.406,-7.691 60.406,-30.207 l -0.019,-48.593 c 0,-22.512 -13.731,-30.207 -60.387,-30.207 l -21.43,0 0,-89.2308 -36.242,0 0,198.2378"
         style="fill:#543f7c;fill-opacity:1;fill-rule:nonzero;stroke:#543f7c;stroke-opacity:1"
         id="path4152"
         inkscape:connector-curvature="0" />
      <path
         d="m 790.76176,218.34782 c 0,7.695 -3.836,13.457 -20.848,13.457 -17.039,0 -20.902,-5.762 -20.902,-13.457 l 0,-20.871 c 0,-6.309 2.219,-12.629 8.25,-17.844 l 57.668,-49.422 c 8.223,-6.863 13.16,-15.371 13.16,-24.16 l 0,-31.3086 c 0,-18.6719 -21.953,-29.0938 -58.191,-29.0938 -40.09,0 -59.325,9.0625 -59.325,29.1172 l 0,27.1642 36.254,0 0,-26.0861 c 0,-9.3398 7.149,-14.8242 23.071,-14.8242 14.82,0 21.949,5.4844 21.949,14.8242 l 0,27.7301 c 0,6.875 -2.731,12.09 -10.422,18.95 l -53.262,46.41 c -9.89,8.5 -15.371,15.09 -15.371,25.242 l 0,23.898 c 0,19.5 20.305,29.102 57.121,29.102 40.629,0 57.094,-9.602 57.094,-27.734 l 0,-25.266 -36.246,0 0,24.172"
         style="fill:#543f7c;fill-opacity:1;fill-rule:nonzero;stroke:#543f7c;stroke-opacity:1"
         id="path4154"
         inkscape:connector-curvature="0" />
      <path
         d="m 1058.2308,218.34782 c 0,7.687 -3.86,13.449 -20.88,13.449 -17.01,0 -20.87,-5.762 -20.87,-13.449 l 0,-20.875 c 0,-6.313 2.2,-12.633 8.24,-17.84 l 57.65,-49.434 c 8.25,-6.855 13.18,-15.371 13.18,-24.156 l 0,-31.3006 c 0,-18.6719 -21.96,-29.0938 -58.2,-29.0938 -40.10104,0 -59.32304,9.0625 -59.32304,29.0938 l 0,27.1876 36.26304,0 -0.03,-26.0861 c 0,-9.3398 7.16,-14.8242 23.09,-14.8242 14.81,0 21.96,5.4844 21.96,14.8242 l 0,27.7301 c 0,6.864 -2.75,12.082 -10.44,18.95 l -53.26104,46.398 c -9.891,8.504 -15.375,15.098 -15.375,25.254 l 0,23.898 c 0,19.489 20.32404,29.102 57.11604,29.102 40.63,0 57.11,-9.613 57.11,-27.734 l 0,-25.266 -36.23,0 0,24.172"
         style="fill:#543f7c;fill-opacity:1;fill-rule:nonzero;stroke:#543f7c;stroke-opacity:1"
         id="path4156"
         inkscape:connector-curvature="0" />
      <path
         d="m 234.73076,245.53082 36.297,0 -79.434,-248.87846 -36.285,0 79.422,248.87846"
         style="fill:#543f7c;fill-opacity:1;fill-rule:nonzero;stroke:#543f7c;stroke-opacity:1"
         id="path4158"
         inkscape:connector-curvature="0" />
      <path
         d="m 177.47676,90.94142 -49.094,154.1484 36.281,0 30.95,-97.187 -18.137,-56.9614"
         style="fill:#543f7c;fill-opacity:1;fill-rule:nonzero;stroke:#543f7c;stroke-opacity:1"
         id="path4160"
         inkscape:connector-curvature="0" />
      <path
         d="m 939.85976,245.53082 36.289,0 -79.426,-248.898 -36.289,0 79.426,248.898"
         style="fill:#543f7c;fill-opacity:1;fill-rule:nonzero;stroke:#543f7c;stroke-opacity:1"
         id="path4162"
         inkscape:connector-curvature="0" />
      <path
         d="m 882.78076,91.37112 -49.093,154.1597 36.285,0 30.957,-97.179 -18.149,-56.9807"
         style="fill:#543f7c;fill-opacity:1;fill-rule:nonzero;stroke:#543f7c;stroke-opacity:1"
         id="path4164"
         inkscape:connector-curvature="0" />
      <path
         d="m 412.40276,47.29302 0.171,0 0,167.9878 c 0,22.516 -13.73,30.211 -60.394,30.211 l -69.895,0 -0.015,-198.2574 36.226,0 0.02,0.0586 0.004,182.8168 29.812,0 c 16.465,0 28,-2.2 28,-12.356 l 0,-170.4608 36.071,0"
         style="fill:#543f7c;fill-opacity:1;fill-rule:nonzero;stroke:#543f7c;stroke-opacity:1"
         id="path4166"
         inkscape:connector-curvature="0" />
      <path
         d="m 1133.0108,222.63682 c 3.42,0 6.48,0.242 6.48,4.332 0,3.297 -2.99,3.91 -5.8,3.91 l -5.5,0 0,-8.242 4.82,0 z m -4.82,-14.961 -4.03,0 0,26.625 10.14,0 c 6.29,0 9.4,-2.32 9.4,-7.566 0,-4.766 -2.99,-6.848 -6.91,-7.34 l 7.58,-11.719 -4.5,0 -7.04,11.535 -4.64,0 0,-11.535 z m 4.9,-5.93 c 10.44,0 18.66,8.18 18.66,19.309 0,10.926 -8.22,19.172 -18.66,19.172 -10.59,0 -18.82,-8.246 -18.82,-19.172 0,-11.129 8.23,-19.309 18.82,-19.309 z m -23.47,19.309 c 0,13.246 10.75,23.012 23.47,23.012 12.57,0 23.3,-9.766 23.3,-23.012 0,-13.379 -10.73,-23.149 -23.3,-23.149 -12.72,0 -23.47,9.77 -23.47,23.149"
         style="fill:#543f7c;fill-opacity:1;fill-rule:nonzero;stroke:#543f7c;stroke-opacity:1"
         id="path4168"
         inkscape:connector-curvature="0" />
    </g>
  </g>
</svg>
